<?xml version="1.0" encoding="UTF-8"?>
<svg width="34px" height="34px" viewBox="0 0 34 34" version="1.1" xmlns="http://www.w3.org/2000/svg" xmlns:xlink="http://www.w3.org/1999/xlink">
    <!-- Generator: Sketch 48.1 (47250) - http://www.bohemiancoding.com/sketch -->
    <title>Combined Shape</title>
    <desc>Created with Sketch.</desc>
    <defs></defs>
    <g id="Chris-Courses-Copy" stroke="none" stroke-width="1" fill="none" fill-rule="evenodd" transform="translate(-196.000000, -710.000000)">
        <path d="M213,744 C203.611159,744 196,736.388841 196,727 C196,717.611159 203.611159,710 213,710 C222.388841,710 230,717.611159 230,727 C230,736.388841 222.388841,744 213,744 Z M211.105464,733.749996 L213.67577,733.749996 L213.67577,727.488292 L215.671859,727.488292 L215.999983,725.000017 L213.67577,725.000017 L213.67577,723.277365 C213.67577,722.876324 213.748687,722.584658 213.89452,722.402367 C214.076811,722.183617 214.41405,722.074242 214.906236,722.074242 L216.218733,722.074242 L216.218733,719.859404 C215.726546,719.786487 215.088527,719.750029 214.304675,719.750029 C213.338531,719.750029 212.563793,720.037138 211.980462,720.611355 C211.39713,721.185573 211.105464,721.992211 211.105464,723.031271 L211.105464,725.000017 L209,725.000017 L209,727.488292 L211.105464,727.488292 L211.105464,733.749996 Z" id="Combined-Shape" fill="#53C0F3"></path>
    </g>
</svg>