<?xml version="1.0" encoding="UTF-8"?>
<svg width="34px" height="34px" viewBox="0 0 34 34" version="1.1" xmlns="http://www.w3.org/2000/svg" xmlns:xlink="http://www.w3.org/1999/xlink">
    <!-- Generator: Sketch 48.1 (47250) - http://www.bohemiancoding.com/sketch -->
    <title>Combined Shape</title>
    <desc>Created with Sketch.</desc>
    <defs></defs>
    <g id="Chris-Courses-Copy" stroke="none" stroke-width="1" fill="none" fill-rule="evenodd" transform="translate(-239.000000, -710.000000)">
        <path d="M256,744 C246.611159,744 239,736.388841 239,727 C239,717.611159 246.611159,710 256,710 C265.388841,710 273,717.611159 273,727 C273,736.388841 265.388841,744 256,744 Z M261.550751,723.843743 C262.115854,723.424474 262.598926,722.923172 262.999967,722.339841 C262.453093,722.576819 261.906219,722.731767 261.359346,722.804683 C261.979136,722.421872 262.398406,721.893227 262.617155,721.218749 C262.052052,721.546874 261.441377,721.774738 260.785128,721.902342 C260.511691,721.628905 260.197239,721.410155 259.841771,721.246093 C259.486303,721.082031 259.098934,721 258.679664,721 C258.169249,721 257.695292,721.127604 257.257793,721.382812 C256.820294,721.638019 256.47394,721.98893 256.218733,722.435543 C255.963525,722.882157 255.835921,723.360671 255.835921,723.871087 C255.835921,724.089836 255.85415,724.308586 255.890609,724.527335 C254.723945,724.472648 253.62564,724.180982 252.595695,723.652337 C251.565749,723.123693 250.695308,722.412757 249.984373,721.51953 C249.710936,721.975258 249.574217,722.453773 249.574217,722.955073 C249.574217,723.456374 249.692707,723.91666 249.929685,724.33593 C250.166664,724.755199 250.476559,725.101553 250.859371,725.37499 C250.403642,725.35676 249.975258,725.229157 249.574217,724.992178 L249.574217,725.046865 C249.574217,725.721343 249.792967,726.322904 250.230466,726.851549 C250.667965,727.380193 251.214838,727.717432 251.871087,727.863265 C251.615879,727.917952 251.360671,727.945296 251.105464,727.945296 C250.941402,727.945296 250.768225,727.936182 250.585934,727.917952 C250.768225,728.483055 251.100906,728.952455 251.583978,729.326152 C252.06705,729.699849 252.627596,729.886698 253.265615,729.886698 C252.208326,730.707008 251.014318,731.117163 249.683592,731.117163 C249.428385,731.117163 249.20052,731.108049 249,731.08982 C250.330726,731.946588 251.79817,732.374973 253.402333,732.374973 C255.079412,732.374973 256.565086,731.946588 257.859354,731.08982 C259.044247,730.324197 259.964818,729.294251 260.621066,727.999983 C261.259085,726.778632 261.578095,725.511708 261.578095,724.199211 C261.578095,724.035149 261.568981,723.91666 261.550751,723.843743 Z" id="Combined-Shape" fill="#53C0F3"></path>
    </g>
</svg>