<?xml version="1.0" encoding="UTF-8"?>
<svg width="34px" height="34px" viewBox="0 0 34 34" version="1.1" xmlns="http://www.w3.org/2000/svg" xmlns:xlink="http://www.w3.org/1999/xlink">
    <!-- Generator: Sketch 48.1 (47250) - http://www.bohemiancoding.com/sketch -->
    <title>Combined Shape</title>
    <desc>Created with Sketch.</desc>
    <defs></defs>
    <g id="Chris-Courses-Copy" stroke="none" stroke-width="1" fill="none" fill-rule="evenodd" transform="translate(-321.000000, -710.000000)">
        <path d="M338,744 C328.611159,744 321,736.388841 321,727 C321,717.611159 328.611159,710 338,710 C347.388841,710 355,717.611159 355,727 C355,736.388841 347.388841,744 338,744 Z M335.539052,730.605472 C335.539052,730.587243 335.52538,730.569014 335.498036,730.550785 C335.470692,730.532555 335.429677,730.523441 335.37499,730.523441 C335.283844,730.523441 335.238271,730.559899 335.238271,730.632816 C335.238271,730.705732 335.288401,730.737633 335.388661,730.728519 C335.488922,730.719404 335.539052,730.678389 335.539052,730.605472 Z M334.691397,730.496097 C334.673168,730.514327 334.677726,730.537113 334.705069,730.564457 C334.732413,730.5918 334.764314,730.614586 334.800772,730.632816 C334.83723,730.651045 334.873689,730.651045 334.910147,730.632816 C334.946605,730.614586 334.969392,730.582686 334.978506,730.537113 C334.987621,730.49154 334.946605,730.455082 334.85546,730.427738 C334.764314,730.400394 334.709627,730.423181 334.691397,730.496097 Z M335.89452,730.44141 C335.803374,730.459639 335.762359,730.496097 335.771473,730.550785 C335.780587,730.605472 335.798817,730.637373 335.82616,730.646488 C335.853504,730.655602 335.885405,730.660159 335.921863,730.660159 C336.013009,730.623701 336.054024,730.578128 336.04491,730.523441 C336.035795,730.468754 335.985665,730.44141 335.89452,730.44141 Z M337.699203,719.968779 C336.441393,719.968779 335.302073,720.260445 334.281242,720.843777 C333.260411,721.427108 332.45833,722.22919 331.874998,723.250021 C331.291666,724.270852 331,725.401058 331,726.640638 C331,728.153655 331.428385,729.507167 332.285153,730.701175 C333.141922,731.895183 334.263013,732.72005 335.648426,733.175778 C335.794259,733.212237 335.908191,733.194008 335.990222,733.121091 C336.072254,733.048174 336.113269,732.957029 336.113269,732.847654 L336.085925,731.179689 L335.785145,731.207033 C335.548166,731.243491 335.320302,731.252606 335.101553,731.234377 C334.791658,731.197919 334.527335,731.115888 334.308586,730.988284 C334.053378,730.842451 333.880201,730.632816 333.789056,730.359379 L333.679681,730.140629 C333.606764,729.976567 333.515619,729.830734 333.406244,729.70313 C333.27864,729.539068 333.151037,729.420579 333.023433,729.347663 L332.886714,729.238288 C332.795569,729.165371 332.754553,729.097012 332.763668,729.03321 C332.772782,728.969408 332.8776,728.937507 333.07812,728.937507 L333.269526,728.964851 C333.415359,729.019538 333.552077,729.08334 333.679681,729.156257 C333.861972,729.283861 334.007805,729.447923 334.11718,729.648443 C334.372388,730.104171 334.73697,730.350264 335.210927,730.386723 C335.502594,730.423181 335.803374,730.368493 336.113269,730.22266 C336.167956,729.82162 336.313789,729.511725 336.550768,729.292975 C335.89452,729.220059 335.402333,729.128913 335.074209,729.019538 C334.563793,728.837247 334.180982,728.554696 333.925774,728.171884 C333.634108,727.716156 333.488275,727.078137 333.488275,726.257826 C333.488275,725.911473 333.538405,725.624364 333.638666,725.3965 C333.738926,725.168636 333.898431,724.917986 334.11718,724.644549 C334.044263,724.480487 334.007805,724.270852 334.007805,724.015644 C333.971347,723.614603 334.035149,723.213563 334.199211,722.812522 C334.363273,722.757835 334.609366,722.794293 334.937491,722.921897 C335.174469,723.013042 335.438791,723.140646 335.730457,723.304708 L336.085925,723.550801 C336.632799,723.386739 337.202459,723.304708 337.794906,723.304708 C338.387352,723.304708 338.966127,723.386739 339.53123,723.550801 L339.886698,723.304708 C340.178364,723.140646 340.433571,723.013042 340.652321,722.921897 C340.980445,722.794293 341.235653,722.757835 341.417944,722.812522 C341.563777,723.213563 341.627579,723.614603 341.60935,724.015644 C341.59112,724.270852 341.545548,724.489601 341.472631,724.671892 C341.727839,724.945329 341.901016,725.173193 341.992161,725.355485 C342.119765,725.610692 342.183567,725.911473 342.183567,726.257826 C342.183567,727.078137 342.028619,727.725271 341.718724,728.199228 C341.445288,728.56381 341.053362,728.837247 340.542946,729.019538 C340.214822,729.128913 339.713521,729.220059 339.039043,729.292975 C339.348938,729.548183 339.503886,729.967453 339.503886,730.550785 L339.503886,732.847654 C339.503886,732.957029 339.544902,733.048174 339.626933,733.121091 C339.708964,733.194008 339.822896,733.212237 339.968729,733.175778 C341.335913,732.72005 342.443332,731.895183 343.290986,730.701175 C344.138641,729.507167 344.562468,728.153655 344.562468,726.640638 C344.562468,725.401058 344.252573,724.261737 343.632782,723.222677 C343.031221,722.220075 342.201796,721.427108 341.144507,720.843777 C340.087218,720.260445 338.938783,719.968779 337.699203,719.968779 Z M333.652337,729.40235 C333.615879,729.438808 333.624994,729.484381 333.679681,729.539068 C333.734368,729.593756 333.779941,729.60287 333.8164,729.566412 C333.852858,729.529954 333.843743,729.484381 333.789056,729.429694 C333.734368,729.375006 333.688796,729.365892 333.652337,729.40235 Z M333.351557,729.1836 C333.333328,729.220059 333.356114,729.256517 333.419916,729.292975 C333.483718,729.329433 333.524733,729.324876 333.542963,729.279303 C333.561192,729.23373 333.542963,729.197272 333.488275,729.169929 C333.433588,729.142585 333.388015,729.147142 333.351557,729.1836 Z M334.253898,730.140629 C334.235669,730.158859 334.226555,730.186202 334.226555,730.22266 C334.226555,730.259119 334.244784,730.295577 334.281242,730.332035 C334.354159,730.404952 334.417961,730.414066 334.472648,730.359379 C334.490877,730.34115 334.495434,730.313806 334.48632,730.277348 C334.477205,730.24089 334.458976,730.208989 334.431632,730.181645 C334.404289,730.154301 334.372388,730.136072 334.33593,730.126958 C334.299471,730.117843 334.272128,730.1224 334.253898,730.140629 Z M333.925774,729.757818 C333.889316,729.776047 333.889316,729.830734 333.925774,729.92188 C333.962232,729.940109 333.994133,729.958338 334.021477,729.976567 C334.048821,729.994797 334.071607,729.994797 334.089836,729.976567 C334.144524,729.940109 334.144524,729.885422 334.089836,729.812505 C334.071607,729.776047 334.048821,729.75326 334.021477,729.744146 C333.994133,729.735032 333.962232,729.739589 333.925774,729.757818 Z" id="Combined-Shape" fill="#53C0F3"></path>
    </g>
</svg>