<?xml version="1.0" encoding="UTF-8"?>
<svg width="34px" height="34px" viewBox="0 0 34 34" version="1.1" xmlns="http://www.w3.org/2000/svg" xmlns:xlink="http://www.w3.org/1999/xlink">
    <!-- Generator: Sketch 48.1 (47250) - http://www.bohemiancoding.com/sketch -->
    <title>Combined Shape</title>
    <desc>Created with Sketch.</desc>
    <defs></defs>
    <g id="Chris-Courses-Copy" stroke="none" stroke-width="1" fill="none" fill-rule="evenodd" transform="translate(-278.000000, -710.000000)">
        <path d="M295,744 C285.611159,744 278,736.388841 278,727 C278,717.611159 285.611159,710 295,710 C304.388841,710 312,717.611159 312,727 C312,736.388841 304.388841,744 295,744 Z M301.222627,724.582023 C301.186169,724.053378 301.104138,723.59765 300.976534,723.214838 C300.812472,722.75911 300.561821,722.362627 300.224583,722.025388 C299.887344,721.68815 299.490861,721.437499 299.035132,721.273437 C298.652321,721.145833 298.20115,721.068359 297.68162,721.041016 C297.16209,721.013672 296.309878,721 295.124985,721 C293.940093,721 293.087881,721.013672 292.568351,721.041016 C292.048821,721.068359 291.59765,721.145833 291.214838,721.273437 C290.75911,721.437499 290.362627,721.68815 290.025388,722.025388 C289.68815,722.362627 289.437499,722.75911 289.273437,723.214838 C289.145833,723.59765 289.068359,724.048821 289.041016,724.568351 C289.013672,725.087881 289,725.940093 289,727.124985 C289,728.309878 289.013672,729.16209 289.041016,729.68162 C289.068359,730.20115 289.145833,730.652321 289.273437,731.035132 C289.437499,731.490861 289.68815,731.887344 290.025388,732.224583 C290.362627,732.561821 290.75911,732.803357 291.214838,732.94919 C291.59765,733.095023 292.048821,733.181612 292.568351,733.208955 C293.087881,733.236299 293.940093,733.249971 295.124985,733.249971 C296.309878,733.249971 297.16209,733.236299 297.68162,733.208955 C298.20115,733.181612 298.652321,733.104138 299.035132,732.976534 C299.490861,732.812472 299.887344,732.561821 300.224583,732.224583 C300.561821,731.887344 300.812472,731.490861 300.976534,731.035132 C301.104138,730.652321 301.181612,730.20115 301.208955,729.68162 C301.236299,729.16209 301.249971,728.309878 301.249971,727.124985 C301.249971,725.940093 301.240856,725.092438 301.222627,724.582023 Z M299.91013,730.734352 C299.691381,731.281225 299.299455,731.673151 298.734352,731.91013 C298.442686,732.019505 297.950499,732.092422 297.257793,732.12888 C296.874981,732.147109 296.309878,732.156223 295.562484,732.156223 L294.687486,732.156223 C293.958321,732.156223 293.393219,732.147109 292.992178,732.12888 C292.3177,732.092422 291.825514,732.019505 291.515619,731.91013 C290.968745,731.691381 290.576819,731.299455 290.339841,730.734352 C290.230466,730.424457 290.157549,729.932271 290.121091,729.257793 C290.102862,728.856752 290.093747,728.291649 290.093747,727.562484 L290.093747,726.687486 C290.093747,725.958321 290.102862,725.393219 290.121091,724.992178 C290.157549,724.299471 290.230466,723.807285 290.339841,723.515619 C290.55859,722.950516 290.950516,722.55859 291.515619,722.339841 C291.825514,722.230466 292.3177,722.157549 292.992178,722.121091 C293.393219,722.102862 293.958321,722.093747 294.687486,722.093747 L295.562484,722.093747 C296.291649,722.093747 296.856752,722.102862 297.257793,722.121091 C297.950499,722.157549 298.442686,722.230466 298.734352,722.339841 C299.299455,722.55859 299.691381,722.950516 299.91013,723.515619 C300.019505,723.807285 300.092422,724.299471 300.12888,724.992178 C300.147109,725.37499 300.156223,725.940093 300.156223,726.687486 L300.156223,727.562484 C300.156223,728.291649 300.147109,728.856752 300.12888,729.257793 C300.092422,729.932271 300.019505,730.424457 299.91013,730.734352 Z M295.124985,723.980462 C294.559882,723.980462 294.035795,724.121737 293.552724,724.404289 C293.069652,724.68684 292.68684,725.069652 292.404289,725.552724 C292.121737,726.035795 291.980462,726.559882 291.980462,727.124985 C291.980462,727.690088 292.121737,728.214175 292.404289,728.697247 C292.68684,729.180319 293.069652,729.563131 293.552724,729.845682 C294.035795,730.128233 294.559882,730.269509 295.124985,730.269509 C295.690088,730.269509 296.214175,730.128233 296.697247,729.845682 C297.180319,729.563131 297.563131,729.180319 297.845682,728.697247 C298.128233,728.214175 298.269509,727.690088 298.269509,727.124985 C298.269509,726.559882 298.128233,726.035795 297.845682,725.552724 C297.563131,725.069652 297.180319,724.68684 296.697247,724.404289 C296.214175,724.121737 295.690088,723.980462 295.124985,723.980462 Z M295.124985,729.175762 C294.559882,729.175762 294.076811,728.975242 293.67577,728.574201 C293.274729,728.17316 293.074209,727.690088 293.074209,727.124985 C293.074209,726.559882 293.274729,726.076811 293.67577,725.67577 C294.076811,725.274729 294.559882,725.074209 295.124985,725.074209 C295.690088,725.074209 296.17316,725.274729 296.574201,725.67577 C296.975242,726.076811 297.175762,726.559882 297.175762,727.124985 C297.175762,727.690088 296.975242,728.17316 296.574201,728.574201 C296.17316,728.975242 295.690088,729.175762 295.124985,729.175762 Z M299.144507,723.843743 C299.144507,723.643223 299.07159,723.470046 298.925758,723.324213 C298.779925,723.17838 298.606748,723.105464 298.406228,723.105464 C298.205707,723.105464 298.03253,723.17838 297.886698,723.324213 C297.740865,723.470046 297.667948,723.643223 297.667948,723.843743 C297.667948,724.044263 297.740865,724.21744 297.886698,724.363273 C298.03253,724.509106 298.205707,724.582023 298.406228,724.582023 C298.606748,724.582023 298.775367,724.509106 298.912086,724.363273 C299.048804,724.21744 299.126278,724.044263 299.144507,723.843743 Z" id="Combined-Shape" fill="#53C0F3"></path>
    </g>
</svg>