<?xml version="1.0" encoding="UTF-8"?>
<svg width="34px" height="34px" viewBox="0 0 34 34" version="1.1" xmlns="http://www.w3.org/2000/svg" xmlns:xlink="http://www.w3.org/1999/xlink">
    <!-- Generator: Sketch 48.1 (47250) - http://www.bohemiancoding.com/sketch -->
    <title>Combined Shape</title>
    <desc>Created with Sketch.</desc>
    <defs></defs>
    <g id="Chris-Courses-Copy" stroke="none" stroke-width="1" fill="none" fill-rule="evenodd" transform="translate(-127.000000, -710.000000)">
        <path d="M144,744 C134.611159,744 127,736.388841 127,727 C127,717.611159 134.611159,710 144,710 C153.388841,710 161,717.611159 161,727 C161,736.388841 153.388841,744 144,744 Z M151.628871,723.640621 C151.537726,723.312497 151.373664,723.029946 151.136685,722.792967 C150.899706,722.555988 150.617155,722.391926 150.289031,722.300781 C149.815074,722.173177 148.703097,722.082031 146.953101,722.027344 L144.464826,722 L141.976551,722.027344 C140.226555,722.082031 139.114578,722.173177 138.640621,722.300781 C138.312497,722.391926 138.029946,722.555988 137.792967,722.792967 C137.555988,723.029946 137.391926,723.312497 137.300781,723.640621 C137.173177,724.132807 137.082031,724.880201 137.027344,725.882803 C137.009114,726.393219 137,726.848947 137,727.249987 L137.027344,728.617172 C137.082031,729.638002 137.173177,730.394511 137.300781,730.886698 C137.391926,731.196593 137.555988,731.470029 137.792967,731.707008 C138.029946,731.943987 138.312497,732.108049 138.640621,732.199194 C139.114578,732.326798 140.226555,732.417944 141.976551,732.472631 L144.464826,732.499975 L146.953101,732.472631 C148.703097,732.417944 149.815074,732.326798 150.289031,732.199194 C150.617155,732.108049 150.899706,731.943987 151.136685,731.707008 C151.373664,731.470029 151.537726,731.196593 151.628871,730.886698 C151.756475,730.394511 151.847621,729.638002 151.902308,728.617172 L151.929652,727.249987 L151.902308,725.882803 C151.847621,724.880201 151.756475,724.132807 151.628871,723.640621 Z M142.93358,729.49217 L142.93358,725.035149 L146.843727,727.249987 L142.93358,729.49217 Z" id="Combined-Shape" fill="#53C0F3"></path>
    </g>
</svg>